<?xml version="1.0" standalone="no"?>
<!DOCTYPE svg PUBLIC "-//W3C//DTD SVG 20010904//EN"
 "http://www.w3.org/TR/2001/REC-SVG-20010904/DTD/svg10.dtd">
<svg version="1.0" xmlns="http://www.w3.org/2000/svg"
 width="137.000000pt" height="137.000000pt" viewBox="0 0 137.000000 137.000000"
 preserveAspectRatio="xMidYMid meet">
<metadata>
Created by potrace 1.14, written by Peter Selinger 2001-2017
</metadata>
<g transform="translate(0.000000,137.000000) scale(0.100000,-0.100000)"
fill="#000000" stroke="none">
<path d="M830 943 c-8 -3 -55 -23 -103 -45 l-88 -40 -61 41 c-51 34 -66 40
-97 35 -20 -3 -43 -10 -51 -15 -10 -6 -6 -7 15 -4 l30 6 -27 -16 c-29 -16 -37
-35 -15 -35 6 0 19 -4 27 -10 12 -7 11 -12 -5 -31 -41 -45 -109 -81 -198 -106
-51 -14 -97 -26 -104 -27 -7 -1 -15 -5 -19 -9 -15 -14 93 13 256 65 104 34
225 82 335 133 95 44 139 58 132 42 -3 -6 -12 -28 -20 -47 -21 -50 -8 -76 45
-91 24 -7 47 -16 52 -20 14 -12 -43 -33 -171 -64 -62 -15 -113 -32 -113 -37 0
-10 709 -2 719 7 2 3 -10 6 -27 6 -18 1 -35 2 -39 3 -5 1 -26 5 -47 10 -47 9
-122 46 -152 74 -12 11 -39 42 -60 69 -52 65 -82 93 -111 104 -26 10 -78 11
-103 2z"/>
<path d="M365 891 c-22 -11 -37 -20 -34 -20 10 -1 79 29 79 34 0 7 0 7 -45
-14z"/>
<path d="M275 860 c-16 -7 -17 -9 -3 -9 9 -1 20 4 23 9 7 11 7 11 -20 0z"/>
<path d="M185 830 c-13 -5 -14 -9 -5 -9 8 0 24 4 35 9 13 5 14 9 5 9 -8 0 -24
-4 -35 -9z"/>
<path d="M108 803 c7 -3 16 -2 19 1 4 3 -2 6 -13 5 -11 0 -14 -3 -6 -6z"/>
<path d="M38 783 c7 -3 16 -2 19 1 4 3 -2 6 -13 5 -11 0 -14 -3 -6 -6z"/>
<path d="M35 481 c-9 -9 -5 -111 4 -111 5 0 11 10 13 23 2 15 11 23 30 25 26
3 45 32 34 51 -6 10 -74 20 -81 12z m65 -31 c0 -13 -26 -19 -41 -9 -12 8 -12
10 0 18 15 10 41 4 41 -9z"/>
<path d="M569 479 c-8 -5 -8 -9 0 -13 6 -4 16 -4 21 -1 6 4 10 -13 10 -44 0
-64 18 -67 22 -3 2 38 6 47 21 46 9 -1 17 2 17 7 0 5 -6 9 -12 10 -7 0 -26 2
-41 3 -15 1 -33 -1 -38 -5z"/>
<path d="M743 474 c-5 -15 -7 -45 -4 -89 1 -17 7 -15 36 17 19 21 36 34 36 30
1 -4 2 -16 3 -27 3 -45 20 -26 21 23 1 28 -2 52 -6 52 -4 0 -19 -15 -33 -32
-22 -27 -28 -30 -36 -18 -5 8 -7 25 -3 37 6 26 -4 31 -14 7z"/>
<path d="M925 481 c-3 -2 -5 -28 -5 -58 l0 -53 34 0 c62 0 75 55 16 66 -16 4
-30 13 -30 20 0 8 6 11 14 8 8 -3 22 -1 32 4 14 8 10 10 -20 14 -20 2 -39 2
-41 -1z m60 -76 c0 -5 -10 -11 -22 -13 -16 -2 -23 2 -23 13 0 11 7 15 23 13
12 -2 22 -7 22 -13z"/>
<path d="M1108 482 c-15 -3 -18 -14 -18 -58 l0 -54 41 0 c24 0 38 4 34 10 -3
6 -17 10 -31 10 -15 0 -24 6 -24 15 0 8 9 15 20 15 11 0 20 5 20 10 0 6 -9 10
-20 10 -18 0 -30 19 -12 21 20 2 44 8 48 12 7 6 -38 13 -58 9z"/>
<path d="M1248 479 c-7 -4 -6 -9 1 -13 6 -4 16 -4 22 0 7 4 10 -4 9 -22 -4
-50 0 -74 10 -74 6 0 10 23 10 50 0 28 3 49 8 49 16 -3 32 1 32 9 0 9 -78 10
-92 1z"/>
<path d="M210 443 l22 -37 -24 -18 -23 -19 24 3 c28 4 94 108 68 108 -8 0 -17
-9 -20 -20 -3 -11 -10 -20 -17 -20 -7 0 -14 9 -17 20 -3 11 -12 20 -20 20 -12
0 -11 -7 7 -37z"/>
<path d="M366 433 c3 -66 3 -65 15 -58 6 4 8 13 5 21 -3 8 -3 21 0 29 5 12 9
11 23 -6 15 -19 18 -20 30 -5 19 22 27 20 27 -6 -1 -13 3 -25 9 -28 11 -6 15
89 4 96 -4 2 -17 -8 -28 -23 l-21 -26 -28 26 c-16 15 -31 27 -33 27 -3 0 -5
-21 -3 -47z"/>
</g>
</svg>
